<svg xmlns="http://www.w3.org/2000/svg" width="1536" height="1024" viewBox="0 0 1536 1024"><rect width="1536" height="1024" fill="#f4f7fb"/><rect x="50" y="40" width="1436" height="105" rx="20" fill="#071827"/><text x="82" y="87" font-family="Arial" font-size="34" font-weight="700" fill="#fff">Node 24 证据链看板</text><text x="82" y="120" font-family="Arial" font-size="17" fill="#cbd5e1">仓库、CI、Vercel 与独立本地验证集中到一屏</text><g font-family="Arial"><g><rect x="50" y="172" width="330" height="120" rx="16" fill="#fff" stroke="#dce5ef"/><text x="78" y="212" font-size="16" fill="#64748b">证据项</text><text x="78" y="260" font-size="38" font-weight="700">5</text></g><g><rect x="400" y="172" width="330" height="120" rx="16" fill="#fff" stroke="#dce5ef"/><text x="428" y="212" font-size="16" fill="#64748b">已通过</text><text x="428" y="260" font-size="38" font-weight="700" fill="#15803d">4</text></g><g><rect x="750" y="172" width="330" height="120" rx="16" fill="#fff" stroke="#dce5ef"/><text x="778" y="212" font-size="16" fill="#64748b">待验证</text><text x="778" y="260" font-size="38" font-weight="700" fill="#a16207">1</text></g><g><rect x="1100" y="172" width="386" height="120" rx="16" fill="#fff" stroke="#dce5ef"/><text x="1128" y="212" font-size="16" fill="#64748b">完成度</text><text x="1128" y="260" font-size="38" font-weight="700">80%</text><rect x="1260" y="242" width="180" height="12" rx="6" fill="#e5e7eb"/><rect x="1260" y="242" width="144" height="12" rx="6" fill="#22c55e"/></g><rect x="50" y="320" width="940" height="640" rx="18" fill="#fff" stroke="#dce5ef"/><text x="82" y="370" font-size="24" font-weight="700">版本证据</text><rect x="82" y="402" width="876" height="52" rx="8" fill="#f8fafc"/><text x="104" y="434" font-size="15" font-weight="700">检查点</text><text x="350" y="434" font-size="15" font-weight="700">版本</text><text x="540" y="434" font-size="15" font-weight="700">来源</text><text x="820" y="434" font-size="15" font-weight="700">状态</text><g font-size="16"><text x="104" y="500">仓库声明</text><text x="350" y="500">&gt;=24 &lt;25</text><text x="540" y="500">package.json</text><text x="820" y="500" fill="#15803d">通过</text><text x="104" y="568">版本文件</text><text x="350" y="568">24</text><text x="540" y="568">.nvmrc / .node-version</text><text x="820" y="568" fill="#15803d">通过</text><text x="104" y="636">GitHub CI</text><text x="350" y="636">v24.15.0</text><text x="540" y="636">Actions 日志</text><text x="820" y="636" fill="#15803d">通过</text><text x="104" y="704">Vercel</text><text x="350" y="704">v24.15.0</text><text x="540" y="704">Settings + Build Logs</text><text x="820" y="704" fill="#15803d">通过</text><text x="104" y="772">独立本地验证</text><text x="350" y="772">待运行</text><text x="540" y="772">Docker proof</text><text x="820" y="772" fill="#a16207">待验证</text></g><rect x="1014" y="320" width="472" height="640" rx="18" fill="#fff" stroke="#dce5ef"/><text x="1046" y="370" font-size="24" font-weight="700">下一步</text><rect x="1046" y="404" width="408" height="170" rx="14" fill="#f8fafc" stroke="#e2e8f0"/><text x="1074" y="446" font-size="18" font-weight="700">独立本地验证</text><text x="1074" y="482" font-size="15" fill="#64748b">在有 Docker 的非 CI 电脑运行：</text><rect x="1074" y="510" width="350" height="42" rx="8" fill="#0f172a"/><text x="1092" y="537" font-size="15" fill="#d1fae5">npm run proof:node24:local</text><rect x="1046" y="604" width="408" height="106" rx="14" fill="#2563eb"/><text x="1188" y="668" font-size="18" font-weight="700" fill="#fff">复制命令</text><rect x="1046" y="740" width="408" height="150" rx="14" fill="#eff6ff"/><text x="1074" y="782" font-size="18" font-weight="700" fill="#1d4ed8">验收规则</text><text x="1074" y="820" font-size="15" fill="#334155">五项均为 Node 24.x，证据包含时间、</text><text x="1074" y="850" font-size="15" fill="#334155">Commit 与日志，才允许合并。</text></g></svg>